<mxfile host="Electron" modified="2023-10-03T15:02:38.345Z" agent="Mozilla/5.0 (Windows NT 10.0; Win64; x64) AppleWebKit/537.36 (KHTML, like Gecko) draw.io/21.7.5 Chrome/114.0.5735.289 Electron/25.8.1 Safari/537.36" etag="YKMVhX19eFL8uwoHtJUf" version="21.7.5" type="device">
  <diagram name="Page-1" id="JoGvszXVbj0Zv3zQQWR0">
    <mxGraphModel dx="683" dy="398" grid="1" gridSize="10" guides="1" tooltips="1" connect="1" arrows="1" fold="1" page="1" pageScale="1" pageWidth="850" pageHeight="1100" math="1" shadow="0">
      <root>
        <mxCell id="0" />
        <mxCell id="1" parent="0" />
        <mxCell id="O94xSWr4ZxD1mKJffWUx-1" value="" style="shape=image;aspect=fixed;image=data:image/png,iVBORw0KGgoAAAANSUhEUgAAARgAAADtCAYAAABkpmqSAAAAAXNSR0IArs4c6QAAAARnQU1BAACxjwv8YQUAAAAJcEhZcwAADsMAAA7DAcdvqGQAAACXaVRYdFNuaXBNZXRhZGF0YQAAAAAAeyJjbGlwUG9pbnRzIjpbeyJ4IjotNjQxLjAxODgsInkiOi0yODEuOTc2NH0seyJ4IjotMTE2LjAxODgsInkiOi0yODEuOTc2NH0seyJ4IjotMTE2LjAxODgsInkiOjEyLjAyMzU5fSx7IngiOi02NDEuMDE4OCwieSI6MTIuMDIzNTl9XX3O6PeeAAAUBElEQVR4Xu3dCXBUdZ7A8V9imIiyHCJTRmGAUXQzggmyeC1bhkUQalAzKiLqIOqqCK7gjjIupQMb10XwQAbQGY8BpxjcxSMpt9RRxOB6DCMqARQBlSQc4uJquJQ7/+3fy3vQCUmnr38f730/VV3pfuk0Tbr72//3f69fckyIAIAFue5XAEg6AgPAGgLjB/XL5aXr20lOzsly8lNr5aC7WOqXyB8uahNa3keKnq89shxIEQLjB7l9Zci4S6VEtsrWKXPk3zfvDy08KDuXTJN7l4SyUnKj3Dusm+Q1XBtIGQLjC3nS7twZ8tADXUW2viSPL1ghu3c/L78vezuUnJ/LiAdvkBHteKiRemxF8pH6zVPl5nP+Tf6wdYjceFutvPbEOvnm7iWyccY/SoF7HSCVCIyvfC9bFg2U/iOXh0YuIQXjZcoHj8rUrj9yvgukGoHxG53YHTJUblrSRQqefEs23vy3zL0gbVgx95vcTtLhpGNCZ86QAWd1JS5IKwIDwBoCA8AaAgPAGiZ5A6J+7XgZVviNnPbZw3LF031k0MLxMvfTEZJ/xfly36gqJoNhBSOYgMgtOFOK8tbKmurPpabqB5GtX8ina9bKundOlzO6n0hcYAUjmMD4Ut6662y5+K9nyTnvvivvS4GccPo+2bnhFpn1fw/IuA681yD5eFYFRnf5u4v7SxeNS0GpXH3lTvlu/Xcidw6WXxAXWMIzKzDypP05l8svC0LnrhsnM245LzSG6ScDLjqLjxHAGlaRAFjDCAaANQQGgDUEBoA1BMbHampq3HNAehAYH5s6dapUVVW5l4DUYyuSjx133HFSWloqCxcudJcAqcUIxqfmz58ve/bskfLycncJkHoExqe8UcvevXuloqLCOQ+kGqtIPrR9+3bp1KmTe0lk8ODB8sYbb7iXgNRhBONDunqUm3vkoV28eLETHSDVCIwPPfnkk1JfX+9easBqEtKBVSQfWrp0qfN14MCBUllZ6Zzv2LGjFBcXO+eBVCEwPpaTkyM8vEgnVpEAWENgAFhDYABYQ2AAWENgAFhDYABYQ2AAWENgAFhDYABYQ2AAWENgAFhDYABYQ2AAWENgAFhDYABYQ2AAWENgAFhDYABYQ2AAWENgAFhDYABYQ2AAWENgAFhDYABYQ2AAWENgAFhDYABYQ2AAWENgAFhDYABYQ2AAWENgAFhDYABYQ2AAWENgAFhDYABYQ2AAWENgAFhDYABYQ2CAVh2QnZu/lb3uJUSPwAARHZBdq+6S2858Ql7Ya9xliBaBASIxy6Ti3idk4c5V8peafe7C5hyQ3etny0Mjx8nNi9bINlrkIDBAJDk/ke592oXOrJcVX+5oWHYUd5RTVCZzNz0vlSOvkdJX/9f9XrARGOAooWB88Z789du9YuRk6X1Bb+kkX8rqTzfJbvcaRzTEZdy5r0vVY2/K6sq5ckuPdbLjh/3u94ONwACNNATjjmH/IOed2EXaXnCD/Oa5DaHlu2X3ex/Kn7/T6IT7UlYsfEH+1Ka/nHdee6mZN02ertkra646VzoMvkWG/uZxefzzH9zrBk+OCXHPZ5D98t3bL8vqc66QC9vmuMsQq5ycHMnIhzeTmQ3ywe8myYLK5fL+axvlo6OGLO0k//xhcnafPtK3qFDOLu4tl/RpI6seuFB+MX2LfD9wkoy99nTpv/19WbtqlSz56X/I/MkXSe82AX0ea2Ayy36zc+Ud5rpjh5ubVn3vLkM8MvLhzSL1P9Sa6qpys+TF0ebW03Oc32fTU87AMjNn857Q03aFWfzrU0zOaTeb8SvrTL17G0GXgSOYb2TlI2dL8V150mtBpay7tocwhokPI5hkWSuv395fhs49Qy586U8y/6efyfq178u75d2k+8O3yE1d8xuudqBK3rxvuAx5cahMfHmWPFp4fMPyAMvAOZjOclq/PtJNaqR65Qb52l16FPO1fFl+h4wcOU2mr9nRZL0YSKau0qtf19DXdfJx7V45uahUhoycIWX/+c9H4qLaFMtF978ir44eJTeedpy7MNgyJDD1sm/fQfd8rhzfZ7Bc3knk4F/Wy6pD7uJwZot88vthcu6oD2R7bZncM+B+eezb5q4IJMPxcvLpZ0gP2S27lq2VTyK9m7UpkqH3DQrunEsTGRAYnbW/U/6pY4H8+Ip/kaseWiALP82Rnue3EXn3A1m65YB7PZcTl+HS/86+cvUHf5aXf3upFNXtlh37GMPAlhw5ttd5cnG70LntoedavbsYrdM5mHSq//aPZualHUzosdNCNDn1NRe8srXxhNm2J8x9f9/G5F71lHmn9iXz9LV/03Dddv3MT8b82lxb9pp5f5973YDT3wtiV1dXZyorK91LroOvmlmFkxsmdBG1DJnkNXJw1xpZ//H/yMqPP5CPVrwvH777ubxdHbprvW6W8S/MkNlndXQne40c2DJb7h91l9z/zkny44mT5Vddt0i7PZ/I8vJc+eGBWfLs0K5yrHPdYGOSNzbbt2+Xxx57TB555BGZPXu2jBkzxv2O0tX4esnPz3MvIyoamIx04Evz8dxi00uL0qvppr96s3/zLHPfgB+ZY6+bZ17bedBdjnCZ/PBmkurqajN27FiTn5/v/M46d+7sfgeJyuxnYP1ms/qJhsjkXPaMeWt/+MpSWGRGPGve2seeB00RmMg0LKNGjXJ+T7m5uc5XPc2cOdO9BhKVoXvyhjFbZNUjv5X3ri6T28I3CTpCq1abF8i0T0rk7qHdWC1qglWkyObPny833HCDe6lB27Zt5auvvpKOHTu6S5CIzA8M4kZgWldWViZTpkxxzuvva9KkSfLggw86l5E4AuNjBCayqqoqKSkpkfbt28umTZucZXV1dYxekohPUyOQvLj06NFDVq1aJfPmzZNRo0YRlyRjBONjjGCaFx6XpUuXEhWLfDGC0f0X9AS0hriklm8C0717d7nnnnukpqbGXQo0RlxSzxeB0SfM4MGDZfr06dKzZ0+55pprCA0aIS7p4ZtJ3ocfftg9J/Lcc885obnyyiudJxOgbzjEJfV8Nck7ZMgQWbx4sXupQe/evWX16tXupWBhkhfp5qvN1JMnT3bPNby4TjrpJHnnnXfcJQgaXS3SE9LHV4HRdeyioiLnvA6Dv/76a6moqHAuI1i8OZepU6e6S5AOvgqM0o/bFxYWyoYNG+T66693PmuinzlBcIRP6PLYp5fvd7TTY3o8++yzzp6ajY/v4X9BnINha1Fm8d0Ipil9B2MkEwzEJfP4PjCKyPgfcclMgQiMIjL+RVwyV+A+7OjNwwQhMkGZg9G46MdFiEvm4dPUPhaUwHgfdCUumScwq0gt0Xc9ZJ/wT89rWIhLZgp0YHQ1aeDAgczJZBmdc9H5FnaizHyBDozOxzDxm13CJ3T1KzJb4FeRNCxEJjuwtSj7BD4wishkPuKSnQiMi8hkLuKSvQhMGCKTeYhLdmM/mGZ4H5Csrq52ntjZKtv3g9Gj0BUXFxOXLEZgWqDvnPrkzmZ+2NFOD7+hwScu2YnA+FgQD9eAzMIcTCt0mK7vnszJpIaOHEtLS/k7Vz5BYFqh6//6hGfi1z5vQpc/OeMfBCYKbF2yj61F/kRgokRk7CEu/kVgYkBkko+4+BuBiRGRSR7i4n9spo6TtzNeeXm5MwmciTJ5MzVxCQZGMHHS0cuECROcFwjiozsyEhd/YwTjY+xoh3RjBJMkOqJhTiYyXS3SE4KDwCSJvnCY+G2ZN+cyceJEdwmCgFWkJPImfjPlz9RmyioSE7rBxQgmiXT0wibsxohLsDGCsSBTRjLpHsHoBxY1LMQluAiMJZkQmXQGRuOiIxdFXIKLVSRLgry6RFzgYQRjmTd6SUdk0jWC0f+zzr0QFxAYH0tXYLyDRREXsIqUYvqu7ncaFuICRWBSSFeTkvG3sHWEoKsgmULvj36uSA/QDYQjMCmkcxOJTvx6E6h9+/bNiMnj8AnddG0tQ+YiMCmmUYg3MuEv5kzYQhV+f5jQRbN0khepFwqEzr6aefPmuUsiq6urM0VFRc5Jz6vWbsPmw9vc/QGaIjBpFG1kIr2YI92GrcAQF0SLwKRZa5GJ5sXc0m3YCAxxQSwITAbwAlFdXe0uaRDLi7m5yCQ7MMQFsSIwGWLFihXuuQbxvJibRsbGCGbKlCkJxuUrs/a5QaYkdN/0/uX9co5ZuHmf+z34DXvyZqBEts7opmLvQ5a6lcnWw6t/fVHvm+6Po/dv6tSp7nciq187XoYV1kqHZQtkUf+NsmTSUBlaN0c+eupyOYttmv6jgUHmWLlypTnmmGNMt27d4h4peCOZZDy8eh/09rz7MnPmTHPKKaccvv3Bgwc7y6OzzSyf1sXk3b0kNI5pcOizcWaIjDDjPtvjLoGf8J6RQXTkMnr0aOnQoYNs2rRJKioq3O/ExtvXxjsfL28kFb7XsB7ycs6cOXLiiSc6lxcvXuyMYKLbi3eT1H6yU445sb2c4C7JLThTivLWypqNu90l8BU3NEgzHSGEz7k0N2kbK/35eG+j6f1pjt5uYWGhufXWW51/R6/bdKK6kUNvmmcG5R2+X0dOp5qfLdroXgl+QmAyQEsv5kQjoz8bz21EE5dwGhWdpNbrh0ZfR01YH+YGJn/6crPXXWQOLDLT8/MJjE8RmDRr7cWcSGT051QstxFrXMJ5P9tyZD4yL1yb3zgwW6aY0dLPlLz+jbsAfkJg0ijaF3O8kfECo6K5jUTi4vFuo3v37s3cRsMkrwx5xlQe0ssHzI43BpkCJnl9i8CkSawvZi8Q5eXl7pLWhQdGRYpMrPcnEv15Dcxll13mLjmiYavREDPojc3m0K5XzFNXH2/ybnzRrHSCA78hMGkQ74t5woQJLc9vNKNpYFRLkdHbvfDCCxOOi6eystL5d/RrY+xoFyTsaJdiqTzEQUuHzAzfGc/mMVxKS0udTdy6Ux6Cif1gUkxfbCtXrnSOAJdIXHT/lnj3cfH2k9E9fcvKytylyaf7xtTW1gbiMKFogY5gkFq6eqK/el1diZeuLultRJq0jfTw6qrQCSec0OptJEpXuxL5fyJ1Dm2aYm4s0FXXn5sRy9xV5V0LzYwBuu9Sb3PWohpzoGFp1AhMmiQjMi3Np3haCow3B6Sbky+55JKIt5EovV39d5ANdph1vzvVeT5IyaNm0a5vzPIHujqX452IJzBpZDsyuryp8Lh4E8athSoRuhOe3vbRk73ISGEjlp/95i4z2hnRxL8bAYFJM5uRaRqY5uLisRkZ3WStH5JENjhgdi0bdXgrn0iB6TJtmdnmfjdWBCYD2IpMeGAixcVjKzI6D6NzRsgWX5glv2rvPBek4F/N3O3x76QUd2AifqgNMbMRGS8w0cTFYyMyGheNDFJHH/O4bZ9rJjmrRnoKm/CNQ0yB0Sfn2LFjTdu2bZ0jmyG5khUZ7+e9wOjlaOLiSXZk9LlCYFJLf+edO3d2vsY2GNh0eGL38MmZ8I1vFNNqYPTO6fpzly5dGv2jBMaOZETGo7ej9N0s1hFnMiOj/3a0cUNy6OtTH7/c3Fzn66mnnuo8lpFHNmHzLwXjzZSaNebF0ceHfj7+eZgWA6N3RN919M5x4sTJP6cW37wOb0EqMAVPfhbKTfiEb3xbkiKOYDQyWj2tn94xr4Z6YgRjVzJGMt5jlch8WbJXl5Aa3ghGT97rVg9v2vLjuNts/q/+pkB/ptEq0ZFVpnj2hWl1FcmjT1K907pep/8YgbEv0cjozyZj1YTIZB8vMDo40CmOhCZ9PYfeNE8PzA+Nbj41dc5hNvQ4PrUNO+cdPgRHY1EHJpw+adlxKjUSiYz+XLIQmeyir89ERq7Na9h8nXf3f5tlzh6/uir1lnnDWXbkQO7hkvcMhDXxRiaZgVFEJugaDhCWl3eOGXCOe2zlC0rMgLw+LR6RkMBkiXgik+zAKCITcIf3keltSob0aJizibAzHoHJIrFGxkZgFJEJMncv31BU/lgzy4lNS6tHisBkmVgiYyswisggGgQmC0UbGZuBUUQGrSEwWSqayNgOjPIiE8vByBEcHDIzS+mxdEORcY6ta/O4uq3xji/McXfRLDc0yFKRRjK2H95oV9UQXATGB1p6odsMDHFBNAiMTzT3grcVGOKCaBEYH2n6wrcRGOKCWBAYnwkPQLIDQ1wQK/6yow/pH1bTP6qmkvXwercZikvcf/ANwcNmah/yNmF75xNFXBAvRjA+pn+bWiUSBuKCRDCC8TkdycS7Mx5xQcJ0BAN/8h7eeCZnmdBFMhAYHwt//4glGMQFyUJgfCw8MCqacBAXJBOB8bGmgVGRAkJckGwExseaC4xqLiTEBTawmdrHdDN1Sw9v+BYiPeQCW4tgA4HxsUiBUV5kFHGBDQTGx1oLjKqoqHAOFjVx4kR3CZA8BMbHogkMYBN78gKwhsAAsIbAALCGwACwhsAAsIbAALCGwACwhsAAsIbAALCGwACwhsAAsIbAALCGwACwhsAAsIbAALCGwACwhsAAsIbAALCGwACwhsAAsIbAALCGwACwhsAAsIbAALCGwACwhsAAsIbAALCGwACwhsAAsIbAALCGwACwhsAAsIbAALCGwACwhsD4UPv27SUnJ8c5r1/1NHHiROcykEoExoeGDx/unjtizJgx7jkgdXJMiHsePlFVVSV9+/Z1L4l06dJFtm3b5l4CUocRjA8VFxdL586dnfO5ubkyefJk5zyQagTGp26//Xbna319vZSWljrngVRjFcmnampqpGfPntKvXz/58MMP3aVAajGC8akePXpIYWHh4ZEMkA6MYHysoqJCSkpKpGPHju4SILUIDABrWEUCYA2BAWANgQFgicj/A5XMSt2Bk8BRAAAAAElFTkSuQmCC;connectable=0;allowArrows=0;recursiveResize=0;expand=0;movable=0;resizable=0;rotatable=0;cloneable=0;deletable=0;editable=0;" vertex="1" parent="1">
          <mxGeometry x="285" y="240" width="280" height="237" as="geometry" />
        </mxCell>
        <mxCell id="O94xSWr4ZxD1mKJffWUx-2" value="" style="endArrow=none;dashed=1;html=1;rounded=0;dashPattern=8 8;strokeWidth=1;" edge="1" parent="1">
          <mxGeometry width="50" height="50" relative="1" as="geometry">
            <mxPoint x="480" y="403" as="sourcePoint" />
            <mxPoint x="480" y="327" as="targetPoint" />
          </mxGeometry>
        </mxCell>
        <mxCell id="O94xSWr4ZxD1mKJffWUx-5" value="\(\sin\theta\)" style="endArrow=classic;html=1;rounded=0;strokeWidth=1;startArrow=classic;startFill=1;endFill=1;" edge="1" parent="1">
          <mxGeometry width="50" height="50" relative="1" as="geometry">
            <mxPoint x="500" y="402" as="sourcePoint" />
            <mxPoint x="500" y="330" as="targetPoint" />
          </mxGeometry>
        </mxCell>
        <mxCell id="O94xSWr4ZxD1mKJffWUx-6" value="" style="endArrow=none;html=1;rounded=0;" edge="1" parent="1">
          <mxGeometry width="50" height="50" relative="1" as="geometry">
            <mxPoint x="480" y="330" as="sourcePoint" />
            <mxPoint x="510" y="330" as="targetPoint" />
          </mxGeometry>
        </mxCell>
        <mxCell id="O94xSWr4ZxD1mKJffWUx-8" value="\(\cos\theta\)" style="endArrow=classic;html=1;rounded=0;strokeWidth=1;startArrow=classic;startFill=1;endFill=1;" edge="1" parent="1">
          <mxGeometry width="50" height="50" relative="1" as="geometry">
            <mxPoint x="405" y="440" as="sourcePoint" />
            <mxPoint x="480" y="440" as="targetPoint" />
          </mxGeometry>
        </mxCell>
        <mxCell id="O94xSWr4ZxD1mKJffWUx-9" value="" style="endArrow=none;html=1;rounded=0;" edge="1" parent="1">
          <mxGeometry width="50" height="50" relative="1" as="geometry">
            <mxPoint x="480" y="400" as="sourcePoint" />
            <mxPoint x="480" y="448" as="targetPoint" />
          </mxGeometry>
        </mxCell>
      </root>
    </mxGraphModel>
  </diagram>
</mxfile>
